<svg xmlns="http://www.w3.org/2000/svg" height="40" viewBox="0 96 960 960" width="40"><path d="M284.525 975.333q-30.858 0-52.691-21.975Q210 931.384 210 900.525q0-30.858 21.975-52.691Q253.95 826 284.808 826q30.859 0 52.692 21.975t21.833 52.833q0 30.859-21.975 52.692-21.974 21.833-52.833 21.833Zm400 0q-30.858 0-52.691-21.975Q610 931.384 610 900.525q0-30.858 21.975-52.691Q653.95 826 684.808 826q30.859 0 52.692 21.975t21.833 52.833q0 30.859-21.975 52.692-21.974 21.833-52.833 21.833ZM206 255.333h589.382q22.976 0 34.964 20.834Q842.333 297 830.667 318L693.333 565.333q-11 19.333-28.872 30.667-17.873 11.333-39.128 11.333H324l-52 96.001h487.333V770H278q-43 0-63-31.833T214.667 670l60.667-111.333L126 242.666H47.334V176h121.333L206 255.333Z"/></svg>